<svg xmlns="http://www.w3.org/2000/svg" viewBox="0 0 940 940" width="200" height="200">
  <rect width="940" height="940" fill="#fbf6ee"></rect>
  <g transform="translate(437.4, 85.8) scale(0.82)">
    <path d="M0 0 C8.9086412 7.72082237 12.48420597 18.78833198 13.75 30.25 C13.8905743 34.67658475 13.87629808 39.10057823 13.86352539 43.52905273 C13.86367142 44.85656052 13.86381744 46.1840683 13.8639679 47.55180359 C13.86327258 51.92908374 13.85549795 56.30632106 13.84765625 60.68359375 C13.84579072 63.72274248 13.84436745 66.76189151 13.84336853 69.80104065 C13.839554 77.79239739 13.82973276 85.7837359 13.81866455 93.77508545 C13.80842758 101.93273675 13.80386601 110.090391 13.79882812 118.24804688 C13.78810957 134.24870569 13.77123865 150.24935187 13.75 166.25 C14.84246583 166.24723462 14.84246583 166.24723462 15.95700169 166.24441338 C33.7375304 166.20010569 51.51805075 166.16708114 69.29862309 166.14637566 C77.89742589 166.13609465 86.49619167 166.12209559 95.0949707 166.09912109 C103.40085704 166.07693988 111.70671516 166.06541441 120.01263237 166.06024551 C123.17370647 166.05656417 126.33477859 166.04937559 129.49583626 166.03853989 C133.94005922 166.0239183 138.3841258 166.02202653 142.82836914 166.02294922 C144.76723495 166.01216339 144.76723495 166.01216339 146.74526978 166.00115967 C162.85188683 166.03709563 178.34331903 167.1050154 190.75 178.25 C197.84142608 187.81350082 198.85968075 199.15585804 197.28515625 210.640625 C194.28994586 226.73323469 186.37234705 239.00823657 173.18359375 248.72265625 C157.41582281 258.6186409 138.69940646 259.42612959 120.62573242 259.36352539 C118.92576363 259.36374443 118.92576363 259.36374443 117.19145203 259.3639679 C113.49610386 259.36327879 109.80080796 259.35553399 106.10546875 259.34765625 C103.52330045 259.3457885 100.94113179 259.34436628 98.35896301 259.34336853 C91.60068768 259.33957145 84.84243423 259.32976548 78.08416748 259.31866455 C71.17265112 259.3083897 64.26113119 259.30385796 57.34960938 259.29882812 C43.8163967 259.28814041 30.28320018 259.27109816 16.75 259.25 C16.80902862 300.21055697 16.88369139 341.17105149 16.97898628 382.13153928 C16.99025289 386.9799452 17.0013916 391.82835141 17.01245117 396.67675781 C17.0157567 398.12445241 17.0157567 398.12445241 17.019129 399.60139336 C17.05439056 415.17784889 17.07931735 430.75430439 17.10034702 446.3307849 C17.12219825 462.34321782 17.15533602 478.35559948 17.19870156 494.36798871 C17.2250587 504.22873262 17.24287099 514.0894128 17.24934604 523.95019014 C17.25528091 531.543093 17.27700602 539.13587171 17.30427551 546.72873116 C17.31299193 549.82036014 17.31679178 552.912008 17.31500816 556.00364876 C16.9831255 604.9718619 16.9831255 604.9718619 38.26953125 647.7734375 C47.27272195 656.76244994 59.14753134 661.54986285 71.75 662.25 C72.57886719 662.3015625 73.40773438 662.353125 74.26171875 662.40625 C92.688881 663.0518732 108.47342991 655.92845745 122.203125 644.14453125 C129.73883692 637.08283992 135.42532466 628.66086495 141.33886719 620.25537109 C148.87918515 609.53977044 156.43802887 602.34359134 169.25 598.5 C179.47068464 597.47793154 187.14022114 599.12724658 195.625 604.875 C206.85205458 617.00021895 206.48505741 632.51827786 205.93652344 648.08349609 C204.65204764 669.88932206 196.26112849 692.28471533 185.75 711.25 C185.10160156 712.45914063 184.45320312 713.66828125 183.78515625 714.9140625 C179.39578411 722.89315879 174.44595835 730.15095893 168.75 737.25 C167.92886719 738.27609375 167.10773438 739.3021875 166.26171875 740.359375 C140.30334249 771.89399504 106.40771382 794.18986064 67.75 807.25 C66.53546143 807.66306396 66.53546143 807.66306396 65.29638672 808.08447266 C23.24668992 822.12925763 -24.38607814 825.44176189 -68.25 819.25 C-69.18553711 819.12109375 -70.12107422 818.9921875 -71.08496094 818.859375 C-126.91495182 810.92824838 -180.33938149 788.95530251 -215.6875 743.3125 C-237.22462409 713.33754373 -248.06322626 677.01742053 -250.37268066 640.40466309 C-250.45577059 639.11132978 -250.53886052 637.81799647 -250.62446833 636.48547125 C-251.50041972 621.70948959 -251.54311364 606.94753657 -251.53710938 592.15039062 C-251.54315275 589.06527021 -251.55008174 585.98015143 -251.55781555 582.89503479 C-251.57255726 576.31978687 -251.58163893 569.74455842 -251.58552551 563.16929626 C-251.59133937 553.64796435 -251.61002727 544.1266882 -251.63196605 534.60538131 C-251.66747265 519.12804333 -251.69588076 503.65070216 -251.71826172 488.17333984 C-251.71959671 487.25193358 -251.7209317 486.33052732 -251.72230715 485.38119966 C-251.73309217 477.89903251 -251.74352312 470.41686487 -251.7539072 462.93469715 C-251.76302662 456.37003876 -251.77227681 449.80538057 -251.78173828 443.24072266 C-251.78306902 442.3156164 -251.78439977 441.39051014 -251.78577083 440.43737036 C-251.80823229 424.98906701 -251.83842852 409.54078803 -251.87413073 394.09250975 C-251.89570579 384.59672223 -251.91039099 375.10097256 -251.91596949 365.60516191 C-251.92073471 358.33713806 -251.93554326 351.0691616 -251.95396996 343.80116081 C-251.95983095 340.83023999 -251.9623213 337.85931023 -251.96113014 334.88838387 C-251.95996484 330.82228157 -251.97103627 326.75638223 -251.98498535 322.69030762 C-251.98168638 321.52590228 -251.9783874 320.36149693 -251.97498846 319.16180658 C-252.07136556 302.04796639 -254.73857308 284.28291244 -266.6875 271.1875 C-276.19641866 262.29149507 -288.85354716 257.43205257 -300.63476562 252.28198242 C-314.26182862 246.23804489 -325.72194992 238.57369252 -331.25 224.25 C-334.58783623 212.96493465 -334.08911676 202.08491072 -329.5625 191.1875 C-322.64458697 179.40835078 -313.31716852 173.80426984 -300.25 170.25 C-295.41936614 169.28582733 -290.72938396 169.05565446 -285.80859375 168.93359375 C-283.35389648 168.87075195 -283.35389648 168.87075195 -280.84960938 168.80664062 C-280.00035889 168.78706299 -279.1511084 168.76748535 -278.27612305 168.74731445 C-275.71975657 168.68824534 -273.16360791 168.62301904 -270.60742188 168.55664062 C-268.96193359 168.51603516 -267.31644531 168.47542969 -265.62109375 168.43359375 C-264.00831543 168.38315918 -262.39553711 168.33272461 -260.73388672 168.28076172 C-256.25 168.25 -256.25 168.25 -252.62939453 168.64501953 C-247.57022345 169.15991469 -244.48348977 169.00551011 -240.08154297 166.30932617 C-236.26349513 163.14718218 -232.74828701 159.75417203 -229.25 156.25 C-227.6395629 154.68022435 -226.027659 153.11195255 -224.41455078 151.54492188 C-219.92497623 147.15672157 -215.48513303 142.72145292 -211.0612793 138.26708984 C-208.29860708 135.48601454 -205.52786907 132.71317165 -202.75585938 129.94140625 C-200.97348388 128.15411886 -199.19156643 126.36637454 -197.41015625 124.578125 C-196.59337906 123.76023499 -195.77660187 122.94234497 -194.93507385 122.09967041 C-190.17486884 117.30028586 -185.6674178 112.36625157 -181.25 107.25 C-178.30956271 104.24955378 -175.31474747 101.31336986 -172.3125 98.375 C-169.4296001 95.4332654 -166.72884487 92.40220212 -164.03564453 89.28955078 C-161.16692616 86.01292058 -158.17734123 82.85330835 -155.1875 79.6875 C-153.86835123 78.28528639 -152.5493442 76.88293943 -151.23046875 75.48046875 C-150.56837402 74.77712402 -149.9062793 74.0737793 -149.22412109 73.34912109 C-139.15905104 62.64673768 -129.18998835 51.85835135 -119.2890625 41.00390625 C-116.29392693 37.73543569 -113.27873845 34.4873403 -110.25 31.25 C-108.96029297 29.85974609 -108.96029297 29.85974609 -107.64453125 28.44140625 C-82.15233689 1.86936099 -34.99523788 -24.11656843 0 0 Z " fill="#1a1a1a"></path>
  </g>
</svg>